#N canvas 182 22 1280 698 10;
#X floatatom 790 101 5 0 0 0 - - -;
#X floatatom 830 101 5 0 0 0 - - -;
#X obj 762 130 polar;
#X obj 805 130 polar;
#X obj 393 75 route key abs;
#X floatatom 781 46 6 0 0 0 - - -;
#X floatatom 831 46 6 0 0 0 - - -;
#X floatatom 881 46 6 0 0 0 - - -;
#X floatatom 931 46 6 0 0 0 - - -;
#X floatatom 981 46 6 0 0 0 - - -;
#X obj 404 -3 tgl 15 0 empty empty empty 17 7 0 10 -262144 -1 -1 1
1;
#X obj 805 130 polar;
#X floatatom 880 101 5 0 0 0 - - -;
#X obj 855 130 polar;
#X obj 855 130 polar;
#X floatatom 922 101 5 0 0 0 - - -;
#X obj 902 132 polar;
#X obj 468 45 print;
#X obj 200 184 tgl 25 0 empty empty empty 0 -6 0 8 -195568 -1 -1 0
1;
#X obj 230 185 tgl 25 0 empty empty empty 0 -6 0 8 -195568 -1 -1 0
1;
#X obj 259 185 tgl 25 0 empty empty empty 0 -6 0 8 -195568 -1 -1 0
1;
#X obj 288 185 tgl 25 0 empty empty empty 0 -6 0 8 -195568 -1 -1 0
1;
#X obj 317 185 tgl 25 0 empty empty empty 0 -6 0 8 -195568 -1 -1 0
1;
#X obj 349 187 tgl 25 0 empty empty empty 0 -6 0 8 -195568 -1 -1 0
1;
#X obj 380 185 tgl 25 0 empty empty empty 0 -6 0 8 -195568 -1 -1 0
1;
#X obj 410 185 tgl 25 0 empty empty empty 0 -6 0 8 -195568 -1 -1 0
1;
#X obj 440 185 tgl 25 0 empty empty empty 0 -6 0 8 -195568 -1 -1 0
1;
#X obj 470 185 tgl 25 0 empty empty empty 0 -6 0 8 -195568 -1 -1 0
1;
#X obj 500 185 tgl 25 0 empty empty empty 0 -6 0 8 -195568 -1 -1 0
1;
#X obj 530 185 tgl 25 0 empty empty empty 0 -6 0 8 -195568 -1 -1 0
1;
#X obj 560 185 tgl 25 0 empty empty empty 0 -6 0 8 -195568 -1 -1 0
1;
#X obj 276 130 route btn_0 btn_1 btn_2 btn_3 btn_4 btn_5 btn_6 btn_7
btn_8 btn_9 btn_10 btn_11 btn_12 btn_13 btn_14 btn_15;
#X obj 590 185 tgl 25 0 empty empty empty 0 -6 0 8 -195568 -1 -1 0
1;
#X obj 629 187 tgl 25 0 empty empty empty 0 -6 0 8 -195568 -1 -1 0
1;
#X obj 659 187 tgl 25 0 empty empty empty 0 -6 0 8 -195568 -1 -1 0
1;
#X obj 689 187 tgl 25 0 empty empty empty 0 -6 0 8 -195568 -1 -1 0
1;
#X text 1212 716 click on any of these;
#X obj 1276 661 hsl 128 15 0.01 1 0 0 empty empty X 12 8 1 12 -233017
-1 -1 0 1;
#X obj 1273 681 hsl 128 15 0 1 0 0 empty empty Y 12 8 1 12 -233017
-1 -1 0 1;
#X obj 1275 700 hsl 128 15 0 1 0 0 empty empty Z 12 8 1 12 -233017
-1 -1 0 1;
#X obj 424 901 rotateXYZ 0 0 0;
#X obj 494 947 colorRGB 1 1 1;
#X obj 341 843 pix_threshold;
#X floatatom 367 784 5 0 100 1 threshold - -;
#X obj 383 759 hsl 128 15 0 1 0 0 empty empty empty -2 -6 0 10 -228856
-1 -1 1863 1;
#X obj 9 656 hsl 128 15 0.7 70 1 0 empty empty empty -2 -6 0 10 -204800
-1 -1 0 1;
#X floatatom 50 825 5 0 0 1 segments - -;
#X msg 430 802 0.1 0.1 0.1;
#X floatatom 205 894 3 0.01 16 1 - - -;
#X msg 205 912 refract \$1;
#X msg 358 942 mag \$1;
#X obj 396 1225 pix_refraction;
#X obj 358 923 tgl 15 0 empty empty empty 0 -6 0 8 -262144 -1 -1 0
1;
#X obj 1050 50 route hatswitch;
#X floatatom 1271 482 5 0 0 0 - - -;
#X obj 1051 95 / 15;
#X obj 1033 121 * -1;
#X obj 1028 145 + 1;
#X obj 865 75 / 300;
#X obj 904 72 / 300;
#X obj 776 10 route abs_x abs_y abs_z abs_rz abs_throttle;
#X obj 768 75 / 300;
#X obj 827 75 / 300;
#X obj 393 515 hsl 128 15 0 1 0 0 empty empty empty -2 -8 0 10 -262144
-1 -1 6325 1;
#X obj 508 1464 rectangle;
#X obj 431 1367 pix_texture;
#X obj 285 407 pix_film;
#X msg 275 365 open \$1;
#X obj 289 339 openpanel;
#X obj 293 312 bng 15 250 50 0 empty empty empty 17 7 0 10 -262144
-1 -1;
#X msg 217 366 auto \$1;
#X obj 333 368 gemhead 2;
#X msg 168 -66 destroy;
#X obj 250 53 tgl 15 0 empty empty empty 17 7 0 10 -262144 -1 -1 1
1;
#X floatatom 556 1408 5 0 0 0 - - -;
#X floatatom 605 1407 5 0 0 0 - - -;
#X obj 194 139 gemwin;
#X obj 487 1068 pix_halftone;
#X floatatom 463 1006 5 1 32 2 size - -;
#X floatatom 500 1005 5 0 0 2 angle - -;
#X floatatom 536 1007 5 0 1 2 smooth - -;
#X obj 380 1004 hradio 15 1 0 5 empty empty style 40 -6 0 8 -262144
-1 -1 0;
#X msg 383 1022 style \$1;
#X floatatom 802 164 5 0 0 0 - - -;
#X floatatom 858 164 5 0 0 0 - - -;
#X floatatom 898 164 5 0 0 0 - - -;
#X obj 357 576 pix_mix 0;
#X obj 757 196 * 100;
#X obj 797 196 * 100;
#X obj 847 196 * 100;
#X obj 773 748 autoscale;
#X floatatom 790 809 5 0 0 0 - - -;
#X obj 771 785 + 0.86;
#X obj 1135 246 autoscale;
#X floatatom 1136 311 5 0 0 0 - - -;
#X obj 1142 279 + 0.86;
#X obj 1061 244 autoscale;
#X floatatom 1077 309 5 0 0 0 - - -;
#X obj 1068 277 + 0.86;
#X obj 92 613 spigot;
#X floatatom 147 492 1 0 0 0 - - -;
#X floatatom 41 626 5 0 0 0 - - -;
#X floatatom 92 631 5 0 0 0 - - -;
#X obj 41 604 spigot;
#X obj 114 579 expr 1-$f1;
#X floatatom 37 904 5 0 0 1 size - -;
#X floatatom 16 942 3 0 0 1 - - -;
#X floatatom 34 852 3 0 0 1 - - -;
#X msg 16 960 width \$1;
#X msg 34 870 height \$1;
#X obj 40 743 autoscale;
#X floatatom 82 714 5 0 0 0 - - -;
#X floatatom 47 693 5 0 0 0 - - -;
#X obj 155 863 autoscale;
#X floatatom 162 824 5 0 0 0 - - -;
#X floatatom 197 818 5 0 0 0 - - -;
#X msg 116 -40 0;
#X text 141 783 0 to 10 refract;
#X text 8 781 0 to 4 height width;
#X floatatom 217 271 5 0 0 0 - - -;
#X floatatom 217 343 5 0 0 0 - - -;
#X obj 217 295 + 1;
#X obj 217 319 % 2;
#X obj 466 408 pix_film;
#X msg 456 366 open \$1;
#X obj 470 340 openpanel;
#X obj 474 313 bng 15 250 50 0 empty empty empty 17 7 0 10 -262144
-1 -1;
#X msg 398 367 auto \$1;
#X obj 514 369 gemhead 2;
#X floatatom 398 272 5 0 0 0 - - -;
#X floatatom 398 344 5 0 0 0 - - -;
#X obj 398 296 + 1;
#X obj 398 320 % 2;
#X msg 605 1364 4;
#X floatatom 1068 72 5 0 0 0 - - -;
#X obj 1031 1347 cnv 15 120 25 empty empty empty 20 12 0 14 -24198
-66577 0;
#X floatatom 1028 1109 5 0 64 1 segments - -;
#X floatatom 1045 1131 5 0 0 1 sourceAngle - -;
#X obj 1034 1352 pix_kaleidoscope;
#X floatatom 1076 1207 5 0 0 1 outputAngle - -;
#X floatatom 1122 1303 5 0.1 10 1 sap - -;
#X floatatom 1106 1287 5 0 1 1 rlp - -;
#X obj 1091 1266 pack;
#X obj 1145 1266 t b f;
#X floatatom 1091 1227 4 0 100 0 - - -;
#X floatatom 1143 1227 4 0 100 0 - - -;
#X obj 1091 1246 * 0.01;
#X obj 1143 1246 * 0.01;
#X obj 1061 1188 pack;
#X obj 1115 1188 t b f;
#X floatatom 1060 1151 4 0 100 0 - - -;
#X floatatom 1113 1149 4 0 100 0 - - -;
#X obj 1061 1168 * 0.01;
#X obj 1113 1168 * 0.01;
#X obj 986 1054 hsl 128 15 0 200 0 1 empty empty empty -2 -6 0 10 -204800
-1 -1 898 1;
#X obj 1069 1011 spigot;
#X floatatom 1043 927 1 0 0 0 - - -;
#X floatatom 1018 1024 5 0 0 0 - - -;
#X floatatom 1069 1029 5 0 0 0 - - -;
#X obj 1005 985 spigot;
#X obj 1074 990 expr 1-$f1;
#X obj 1009 1004 * 3.75;
#X msg 981 1026 0;
#X obj 566 870 hsl 128 15 0 70 0 1 empty empty empty -2 -6 0 10 -258113
-1 -1 12700 1;
#X obj 690 791 spigot;
#X floatatom 704 581 1 0 0 0 - - -;
#X floatatom 627 807 5 0 0 0 - - -;
#X floatatom 690 811 5 0 0 0 - - -;
#X obj 630 764 spigot;
#X obj 684 770 expr 1-$f1;
#X obj 1048 830 hsl 128 15 0 70 0 1 empty empty empty -2 -6 0 10 -4160
-1 -1 10751 1;
#X obj 1138 790 spigot;
#X floatatom 1082 809 5 0 0 0 - - -;
#X floatatom 1139 811 5 0 0 0 - - -;
#X obj 1092 764 spigot;
#X obj 1147 770 expr 1-$f1;
#X obj 807 836 hsl 128 15 0 70 0 1 empty empty empty -2 -6 0 10 -4034
-1 -1 12700 1;
#X obj 891 797 spigot;
#X floatatom 839 815 5 0 0 0 - - -;
#X floatatom 890 817 5 0 0 0 - - -;
#X obj 826 774 spigot;
#X obj 876 773 expr 1-$f1;
#X obj 1007 738 autoscale;
#X floatatom 1043 810 5 0 0 0 - - -;
#X obj 1034 778 + 0.86;
#X obj 566 751 autoscale;
#X floatatom 571 799 5 0 0 0 - - -;
#X obj 564 774 + 0.86;
#X obj 1131 1083 autoscale;
#X floatatom 1159 1049 5 0 0 0 - - -;
#X floatatom 1204 1057 5 0 0 0 - - -;
#X msg 65 -65 123;
#X obj 993 244 autoscale;
#X floatatom 1009 309 5 0 0 0 - - -;
#X obj 999 277 + 0.86;
#X floatatom 404 454 5 0 0 0 - - -;
#X obj 1107 120 % 15;
#X floatatom 757 164 5 0 0 0 - - -;
#X obj 747 228 - 10.37;
#X obj 896 197 * 100;
#X obj 797 228 - 10.37;
#X obj 846 228 - 10.37;
#X obj 898 227 - 10.37;
#X obj 154 656 hsl 128 15 0 65 0 1 empty empty empty -2 -6 0 10 -204800
-1 -1 0 1;
#X obj 237 613 spigot;
#X floatatom 186 626 5 0 0 0 - - -;
#X floatatom 237 631 5 0 0 0 - - -;
#X obj 186 604 spigot;
#X obj 259 579 expr 1-$f1;
#X msg 426 545 0.7 0.7;
#X obj 397 487 autoscale;
#X msg 24 -91 10;
#X obj 415 697 autoscale;
#X floatatom 597 703 5 0 0 0 - - -;
#X floatatom 603 726 5 0 0 0 - - -;
#X text 540 681 PRESET 0 to 255;
#X floatatom 786 707 5 0 0 0 - - -;
#X floatatom 819 726 5 0 0 0 - - -;
#X text 755 690 PRESET 0 to 255;
#X text 1078 735 PRESET 0 to 255;
#X floatatom 1009 689 5 0 0 0 - - -;
#X floatatom 1043 711 5 0 0 0 - - -;
#X text 1001 714 comment;
#X obj 629 785 - 64;
#X obj 830 794 - 64;
#X obj 1089 785 - 64;
#X msg 599 239 255;
#X obj 456 12 logi_gamepad;
#N canvas 107 24 450 300 esc 0;
#X obj 65 20 gemkeyboard;
#X obj 65 167 outlet;
#X obj 89 71 keyname;
#X obj 128 96 sel Escape;
#X obj 65 41 sel 53;
#X obj 189 47 sel Escape;
#X obj 150 22 gemkeyname;
#X connect 0 0 4 0;
#X connect 2 1 3 0;
#X connect 3 0 1 0;
#X connect 4 0 1 0;
#X connect 5 0 1 0;
#X connect 6 1 5 0;
#X restore 302 -63 pd esc;
#X msg 271 -90 dimen 1280 720 \, fullscreen 2 \, create;
#X msg 557 1365 7;
#X msg 357 409 0;
#X msg 527 409 0;
#X connect 0 0 2 0;
#X connect 1 0 3 0;
#X connect 2 0 197 0;
#X connect 3 0 83 0;
#X connect 4 0 31 0;
#X connect 4 1 60 0;
#X connect 5 0 61 0;
#X connect 5 0 192 0;
#X connect 6 0 62 0;
#X connect 7 0 58 0;
#X connect 8 0 59 0;
#X connect 8 0 195 0;
#X connect 10 0 133 0;
#X connect 10 0 191 0;
#X connect 10 0 227 0;
#X connect 10 0 230 0;
#X connect 12 0 13 0;
#X connect 13 0 84 0;
#X connect 15 0 16 0;
#X connect 16 0 85 0;
#X connect 19 0 129 0;
#X connect 21 0 119 0;
#X connect 22 0 100 0;
#X connect 23 0 156 0;
#X connect 25 0 165 0;
#X connect 26 0 69 0;
#X connect 26 0 126 0;
#X connect 27 0 229 0;
#X connect 28 0 116 0;
#X connect 29 0 162 0;
#X connect 29 0 226 0;
#X connect 31 0 18 0;
#X connect 31 1 19 0;
#X connect 31 2 20 0;
#X connect 31 3 21 0;
#X connect 31 4 22 0;
#X connect 31 5 23 0;
#X connect 31 6 24 0;
#X connect 31 7 25 0;
#X connect 31 8 26 0;
#X connect 31 9 27 0;
#X connect 31 10 28 0;
#X connect 31 11 29 0;
#X connect 31 12 30 0;
#X connect 31 13 32 0;
#X connect 31 14 33 0;
#X connect 31 15 34 0;
#X connect 31 16 35 0;
#X connect 40 0 41 0;
#X connect 41 0 77 0;
#X connect 42 0 41 0;
#X connect 44 0 43 0;
#X connect 44 0 42 1;
#X connect 45 0 110 0;
#X connect 46 0 107 0;
#X connect 46 0 105 0;
#X connect 47 0 42 2;
#X connect 48 0 49 0;
#X connect 49 0 51 0;
#X connect 50 0 51 0;
#X connect 51 0 65 0;
#X connect 52 0 50 0;
#X connect 53 0 55 0;
#X connect 53 0 134 0;
#X connect 55 0 56 0;
#X connect 56 0 57 0;
#X connect 58 0 12 0;
#X connect 59 0 15 0;
#X connect 60 0 5 0;
#X connect 60 1 6 0;
#X connect 60 2 7 0;
#X connect 60 3 8 0;
#X connect 60 4 9 0;
#X connect 60 5 53 0;
#X connect 61 0 0 0;
#X connect 62 0 1 0;
#X connect 63 0 86 2;
#X connect 65 0 64 0;
#X connect 66 0 86 0;
#X connect 66 2 231 0;
#X connect 67 0 66 0;
#X connect 68 0 67 0;
#X connect 69 0 68 0;
#X connect 70 0 66 0;
#X connect 71 0 66 0;
#X connect 72 0 76 0;
#X connect 73 0 76 0;
#X connect 74 0 64 1;
#X connect 75 0 64 2;
#X connect 77 0 51 0;
#X connect 78 0 77 1;
#X connect 79 0 77 2;
#X connect 80 0 77 3;
#X connect 81 0 82 0;
#X connect 82 0 77 0;
#X connect 83 0 88 0;
#X connect 83 0 96 0;
#X connect 84 0 89 0;
#X connect 84 0 93 0;
#X connect 85 0 199 0;
#X connect 86 0 42 0;
#X connect 86 0 138 0;
#X connect 87 0 182 0;
#X connect 87 0 198 0;
#X connect 88 0 200 0;
#X connect 88 0 185 0;
#X connect 88 0 90 0;
#X connect 89 0 201 0;
#X connect 90 0 92 0;
#X connect 91 0 180 0;
#X connect 92 0 91 0;
#X connect 93 0 95 0;
#X connect 95 0 94 0;
#X connect 96 0 98 0;
#X connect 98 0 97 0;
#X connect 99 0 102 0;
#X connect 100 0 103 1;
#X connect 100 0 104 0;
#X connect 100 0 207 1;
#X connect 100 0 208 0;
#X connect 101 0 45 0;
#X connect 102 0 45 0;
#X connect 103 0 101 0;
#X connect 104 0 99 1;
#X connect 105 0 106 0;
#X connect 106 0 108 0;
#X connect 107 0 109 0;
#X connect 108 0 51 0;
#X connect 109 0 51 0;
#X connect 110 0 107 0;
#X connect 110 0 106 0;
#X connect 111 0 110 2;
#X connect 112 0 110 1;
#X connect 113 0 48 0;
#X connect 114 0 113 1;
#X connect 115 0 113 2;
#X connect 116 0 45 0;
#X connect 116 0 203 0;
#X connect 119 0 121 0;
#X connect 120 0 70 0;
#X connect 121 0 122 0;
#X connect 122 0 120 0;
#X connect 123 0 86 1;
#X connect 123 2 232 0;
#X connect 124 0 123 0;
#X connect 125 0 124 0;
#X connect 126 0 125 0;
#X connect 127 0 123 0;
#X connect 128 0 123 0;
#X connect 129 0 131 0;
#X connect 130 0 127 0;
#X connect 131 0 132 0;
#X connect 132 0 130 0;
#X connect 133 0 75 0;
#X connect 134 0 196 0;
#X connect 136 0 138 1;
#X connect 137 0 138 2;
#X connect 138 0 51 0;
#X connect 139 0 138 4;
#X connect 140 0 138 7;
#X connect 141 0 138 6;
#X connect 142 0 138 5;
#X connect 143 0 142 0;
#X connect 143 1 142 1;
#X connect 144 0 146 0;
#X connect 145 0 147 0;
#X connect 146 0 142 0;
#X connect 147 0 143 0;
#X connect 148 0 138 3;
#X connect 149 0 148 0;
#X connect 149 1 148 1;
#X connect 150 0 152 0;
#X connect 151 0 153 0;
#X connect 152 0 148 0;
#X connect 153 0 149 0;
#X connect 154 0 188 0;
#X connect 154 0 136 0;
#X connect 155 0 158 0;
#X connect 156 0 159 1;
#X connect 156 0 160 0;
#X connect 157 0 154 0;
#X connect 158 0 154 0;
#X connect 159 0 161 0;
#X connect 160 0 155 1;
#X connect 161 0 157 0;
#X connect 162 0 154 0;
#X connect 163 0 41 1;
#X connect 164 0 167 0;
#X connect 165 0 168 1;
#X connect 165 0 169 0;
#X connect 165 0 174 1;
#X connect 165 0 175 0;
#X connect 165 0 180 1;
#X connect 165 0 181 0;
#X connect 166 0 163 0;
#X connect 167 0 163 0;
#X connect 168 0 223 0;
#X connect 169 0 164 1;
#X connect 170 0 41 3;
#X connect 171 0 173 0;
#X connect 172 0 170 0;
#X connect 173 0 170 0;
#X connect 174 0 225 0;
#X connect 175 0 171 1;
#X connect 176 0 41 2;
#X connect 177 0 179 0;
#X connect 178 0 176 0;
#X connect 179 0 176 0;
#X connect 180 0 224 0;
#X connect 181 0 177 1;
#X connect 182 0 184 0;
#X connect 183 0 174 0;
#X connect 184 0 183 0;
#X connect 185 0 187 0;
#X connect 186 0 168 0;
#X connect 187 0 186 0;
#X connect 188 0 137 0;
#X connect 188 0 139 0;
#X connect 189 0 188 1;
#X connect 190 0 188 2;
#X connect 191 0 115 0;
#X connect 191 0 46 0;
#X connect 192 0 194 0;
#X connect 194 0 193 0;
#X connect 195 0 210 0;
#X connect 196 0 54 0;
#X connect 197 0 87 0;
#X connect 198 0 103 0;
#X connect 199 0 202 0;
#X connect 200 0 207 0;
#X connect 200 0 159 0;
#X connect 201 0 212 0;
#X connect 203 0 113 0;
#X connect 204 0 206 0;
#X connect 205 0 203 0;
#X connect 206 0 203 0;
#X connect 207 0 205 0;
#X connect 208 0 204 1;
#X connect 209 0 86 2;
#X connect 210 0 63 0;
#X connect 211 0 111 0;
#X connect 211 0 190 0;
#X connect 212 0 44 0;
#X connect 213 0 185 1;
#X connect 214 0 185 2;
#X connect 216 0 90 1;
#X connect 217 0 90 2;
#X connect 220 0 182 1;
#X connect 221 0 182 2;
#X connect 223 0 166 0;
#X connect 224 0 178 0;
#X connect 225 0 172 0;
#X connect 226 0 163 0;
#X connect 226 0 176 0;
#X connect 226 0 170 0;
#X connect 226 0 214 0;
#X connect 226 0 217 0;
#X connect 226 0 221 0;
#X connect 227 0 17 0;
#X connect 227 0 4 0;
#X connect 228 0 72 0;
#X connect 229 0 76 0;
#X connect 230 0 74 0;
#X connect 231 0 66 1;
#X connect 232 0 123 1;
